<?xml version="1.0" encoding="UTF-8"?>
<svg xmlns="http://www.w3.org/2000/svg" width="19.949" height="30" viewBox="0 0 19.949 30">
    <g id="angry-2" transform="translate(-0.858)">
        <g id="Group_225" data-name="Group 225" transform="translate(0.858)">
            <g id="Group_223" data-name="Group 223" transform="translate(0.714 0.44)">
                <g id="Group_217" data-name="Group 217" transform="translate(0 10.325)">
                    <circle id="Ellipse_293" data-name="Ellipse 293" cx="9.398" cy="9.398" r="9.398" fill="#ee596b"/>
                </g>
                <g id="Group_218" data-name="Group 218" transform="translate(5.169 16.908)">
                    <path id="Path_506" data-name="Path 506" d="M2.8,5.31h0a.94.94,0,0,1-.94-.94V3.9a.94.94,0,0,1,.94-.94h0a.94.94,0,0,1,.94.94v.47A.94.94,0,0,1,2.8,5.31Z" transform="translate(-1.862 -2.961)" fill="#4b3f4e"/>
                </g>
                <g id="Group_219" data-name="Group 219" transform="translate(0 12.518)">
                    <path id="Path_507" data-name="Path 507" d="M11.553,17.641a9.395,9.395,0,0,1-7.2-15.428A9.4,9.4,0,1,0,17.583,15.447,9.356,9.356,0,0,1,11.553,17.641Z" transform="translate(-0.98 -2.213)" fill="#ed3a4f"/>
                </g>
                <g id="Group_220" data-name="Group 220" transform="translate(11.747 16.908)">
                    <path id="Path_508" data-name="Path 508" d="M3.924,5.31h0a.94.94,0,0,1-.94-.94V3.9a.94.94,0,0,1,.94-.94h0a.94.94,0,0,1,.94.94v.47A.94.94,0,0,1,3.924,5.31Z" transform="translate(-2.984 -2.961)" fill="#4b3f4e"/>
                </g>
                <g id="Group_221" data-name="Group 221" transform="translate(6.641 0)">
                    <path id="Path_509" data-name="Path 509" d="M3.389.457,2.118,7.23a.307.307,0,0,0,.3.363H5.34l-.8,4.8a.17.17,0,0,0,.312.118l4-6.4a.26.26,0,0,0-.221-.4H5.809L7.562.456A.289.289,0,0,0,7.288.075H3.848A.468.468,0,0,0,3.389.457Z" transform="translate(-2.113 -0.075)" fill="#feda38"/>
                </g>
                <g id="Group_222" data-name="Group 222" transform="translate(6.641)">
                    <path id="Path_510" data-name="Path 510" d="M3.848.075a.468.468,0,0,0-.46.382L2.118,7.23a.307.307,0,0,0,.3.363H5.34l-.8,4.8a.162.162,0,0,0,.1.178L6.61,7.042a.291.291,0,0,0-.274-.389H3.82A.291.291,0,0,1,3.535,6.3L4.87.075Z" transform="translate(-2.113 -0.075)" fill="#fcad3a"/>
                </g>
                <path id="Path_511" data-name="Path 511" d="M6.091,6.5a23.481,23.481,0,0,1,3.469.255h.76A4.685,4.685,0,0,0,6.091,3.682,4.685,4.685,0,0,0,1.862,6.756h.76A23.477,23.477,0,0,1,6.091,6.5Z" transform="translate(3.307 17.453)" fill="#fff"/>
            </g>
            <g id="Group_224" data-name="Group 224">
                <path id="Path_512" data-name="Path 512" d="M3.556,5.625a.5.5,0,0,1-.5-.5.44.44,0,1,0-.879,0,1.379,1.379,0,1,0,2.759,0V4.919l.327.14a.44.44,0,0,0,.346-.808L2.32,2.841a.44.44,0,1,0-.346.808l2.083.893v.583A.5.5,0,0,1,3.556,5.625Z" transform="translate(3.266 13.633)"/>
                <path id="Path_513" data-name="Path 513" d="M1.729,7.475a.439.439,0,0,0,.556.279,17.845,17.845,0,0,1,4.561-.447,17.847,17.847,0,0,1,4.561.447.44.44,0,1,0,.277-.834c-.076-.025-.16-.05-.249-.074A5.126,5.126,0,0,0,6.846,3.607,5.126,5.126,0,0,0,2.257,6.845c-.089.024-.173.048-.249.074A.44.44,0,0,0,1.729,7.475ZM6.846,4.487a4.14,4.14,0,0,1,3.5,2.15,26.328,26.328,0,0,0-3.5-.21,26.335,26.335,0,0,0-3.5.21A4.14,4.14,0,0,1,6.846,4.487Z" transform="translate(3.266 17.528)"/>
                <path id="Path_514" data-name="Path 514" d="M6.882,3.072A.44.44,0,0,0,6.3,2.841L3.015,4.251a.44.44,0,1,0,.346.808l.327-.14v.206a1.379,1.379,0,0,0,2.759,0,.44.44,0,1,0-.879,0,.5.5,0,0,1-1,0V4.542l2.083-.893A.44.44,0,0,0,6.882,3.072Z" transform="translate(8.333 13.633)"/>
                <path id="Path_515" data-name="Path 515" d="M3.372,10.369a.44.44,0,0,0,.669.121l1.023-.87,2.067,3.72a.44.44,0,1,0,.769-.427L7.259,11.76a8.879,8.879,0,0,1,2.555-.527l-.382,2.292a.44.44,0,0,0,.806.305L11.8,11.336a8.844,8.844,0,0,1,2.8.955l-.807.8a.44.44,0,1,0,.619.625l3.4-3.372a.44.44,0,0,0-.064-.677L16.63,8.915l3.024-2.995a.44.44,0,0,0-.619-.625l-3.4,3.372a.44.44,0,0,0,.064.677l1.114.751-1.567,1.552A9.715,9.715,0,0,0,12.3,10.534l2.639-4.222a.44.44,0,0,0-.373-.673H11.884L13.571.579A.44.44,0,0,0,13.154,0H8.925a.44.44,0,0,0-.432.359L7.083,7.877a.44.44,0,0,0,.432.521h2.77l-.325,1.948a9.763,9.763,0,0,0-3.134.637L5.572,8.724A.44.44,0,0,0,4.9,8.6l-1.023.87L1.813,5.753a.44.44,0,1,0-.769.427Zm4.673-2.85L9.29.879h3.254l-1.687,5.06a.44.44,0,0,0,.417.579h2.5l-3.109,4.975.577-3.463a.44.44,0,0,0-.434-.512H8.045Z" transform="translate(-0.223)"/>
                <path id="Path_516" data-name="Path 516" d="M17.55,3.093a.44.44,0,0,0-.608.635A8.958,8.958,0,1,1,1.784,10.2,8.974,8.974,0,0,1,5.61,2.852a.44.44,0,1,0-.5-.72A9.838,9.838,0,1,0,20.58,10.2,9.754,9.754,0,0,0,17.55,3.093Z" transform="translate(-0.631 9.967)"/>
                <path id="Path_517" data-name="Path 517" d="M2.864,3.694a.44.44,0,0,0,.24-.808L1.538,1.868a.44.44,0,1,0-.479.737L2.625,3.623A.438.438,0,0,0,2.864,3.694Z" transform="translate(-0.858 8.732)"/>
                <path id="Path_518" data-name="Path 518" d="M5.02,1.926,4.2,2.279a.44.44,0,1,0,.346.808l.822-.352a.44.44,0,0,0-.346-.808Z" transform="translate(14.081 9.186)"/>
            </g>
        </g>
    </g>
</svg>
