<?xml version="1.0" encoding="UTF-8"?>
<svg xmlns="http://www.w3.org/2000/svg" width="31" height="30.878" viewBox="0 0 31 30.878">
    <g id="laugh-5" transform="translate(-7 -8.006)">
        <g id="Group_215" data-name="Group 215" transform="translate(7.5 8.506)">
            <g id="Group_209" data-name="Group 209" transform="translate(0.121 0.129)">
                <path id="Path_488" data-name="Path 488" d="M27.347,19.975a.461.461,0,0,0,0-.681l-1.5-1.369a.461.461,0,0,1-.129-.48l.617-1.936a.461.461,0,0,0-.341-.59l-1.985-.434a.461.461,0,0,1-.352-.352l-.434-1.985a.461.461,0,0,0-.59-.341l-1.936.617a.461.461,0,0,1-.48-.129l-1.369-1.5a.461.461,0,0,0-.681,0l-1.369,1.5a.461.461,0,0,1-.48.129l-1.936-.617a.461.461,0,0,0-.59.341l-.434,1.985a.461.461,0,0,1-.352.352l-1.985.434a.461.461,0,0,0-.341.59l.617,1.936a.461.461,0,0,1-.129.48l-1.5,1.369a.461.461,0,0,0,0,.681l1.5,1.369a.461.461,0,0,1,.129.48l-.617,1.936a.461.461,0,0,0,.341.59L13,24.785a.461.461,0,0,1,.352.352l.434,1.985a.461.461,0,0,0,.59.341l1.936-.617a.461.461,0,0,1,.48.129l1.369,1.5a.461.461,0,0,0,.681,0l1.283-2.132a.461.461,0,0,1,.48-.129l2.023,1.246,3.7-3.7-.617-1.936a.461.461,0,0,1,.129-.48Z" transform="translate(-9.511 -10.641)" fill="#59ccee"/>
                <path id="Path_489" data-name="Path 489" d="M22.721,80.248l-1.588-.506a1.911,1.911,0,0,0-1.988.533l-.641.7-.641-.7a1.911,1.911,0,0,0-1.987-.532l-.906.289-.2-.93a1.911,1.911,0,0,0-1.455-1.455l-.929-.2.289-.907a1.911,1.911,0,0,0-.532-1.988l-.7-.641.7-.641a1.911,1.911,0,0,0,.532-1.986l-.289-.908.233-.051a1.227,1.227,0,0,0,.807-1.8l-.067-.12v0a.461.461,0,0,1-.352.352l-1.985.434a.461.461,0,0,0-.341.59l.617,1.936a.461.461,0,0,1-.129.48l-1.5,1.369a.461.461,0,0,0,0,.681l1.5,1.369a.461.461,0,0,1,.129.48l-.617,1.936a.461.461,0,0,0,.341.59L13,79.059a.461.461,0,0,1,.352.352l.434,1.985a.461.461,0,0,0,.59.341l1.936-.617a.461.461,0,0,1,.48.129l1.369,1.5a.461.461,0,0,0,.681,0l1.369-1.5a.461.461,0,0,1,.48-.129l1.936.617.6-.6Z" transform="translate(-9.511 -64.915)" fill="#47a2f0"/>
                <path id="Path_490" data-name="Path 490" d="M198.782,188.175l1.431,1.571a.482.482,0,0,0,.5.135l2.025-.645a.482.482,0,0,1,.617.356l.454,2.076a.482.482,0,0,0,.368.368l2.076.454a.482.482,0,0,1,.356.617l-.645,2.025a.482.482,0,0,0,.135.5l1.571,1.431a.482.482,0,0,1,0,.712L206.1,199.21a.482.482,0,0,0-.135.5l.645,2.025a.482.482,0,0,1-.356.617l-2.076.454a.482.482,0,0,0-.368.368l-.454,2.076a.482.482,0,0,1-.617.356l-2.025-.645a.482.482,0,0,0-.5.135l-1.431,1.571a.482.482,0,0,1-.712,0l-1.431-1.571a.482.482,0,0,0-.5-.135l-2.025.645a.482.482,0,0,1-.617-.356l-.454-2.076a.482.482,0,0,0-.368-.368l-2.076-.454a.482.482,0,0,1-.356-.617l.645-2.025a.482.482,0,0,0-.135-.5l-1.571-1.431a.482.482,0,0,1,0-.712l1.571-1.431a.482.482,0,0,0,.135-.5l-.645-2.025a.482.482,0,0,1,.356-.617l2.076-.454a.482.482,0,0,0,.368-.368l.454-2.076a.482.482,0,0,1,.617-.356l2.025.645a.482.482,0,0,0,.5-.135l1.431-1.571A.482.482,0,0,1,198.782,188.175Z" transform="translate(-178.185 -177.311)" fill="#feda38"/>
                <path id="Path_491" data-name="Path 491" d="M203.918,257.947a1.449,1.449,0,0,0-1.722,1.1l-.022.1-1.017-.324a1.933,1.933,0,0,0-2.011.539l-.718.788-.72-.79a1.959,1.959,0,0,0-2.009-.537l-1.017.324-.229-1.043a1.932,1.932,0,0,0-1.471-1.471l-1.043-.228.324-1.016a1.934,1.934,0,0,0-.538-2.011l-.789-.719.788-.718a1.933,1.933,0,0,0,.539-2.01l-.324-1.017.1-.022a1.445,1.445,0,0,0,1.1-1.721l-.08-.367-.022.1a.482.482,0,0,1-.368.368l-2.076.454a.482.482,0,0,0-.356.617l.645,2.025a.482.482,0,0,1-.135.5l-1.571,1.431a.482.482,0,0,0,0,.712l1.571,1.431a.482.482,0,0,1,.135.5l-.645,2.025a.482.482,0,0,0,.356.617l2.076.454a.482.482,0,0,1,.368.368l.454,2.076a.482.482,0,0,0,.617.356l2.025-.645a.482.482,0,0,1,.5.135l1.431,1.571a.482.482,0,0,0,.713,0l1.431-1.571a.482.482,0,0,1,.5-.135l2.025.645a.482.482,0,0,0,.617-.356l.454-2.076a.482.482,0,0,1,.368-.368l.1-.022Z" transform="translate(-178.188 -232.552)" fill="#fcad3a"/>
            </g>
            <g id="Group_214" data-name="Group 214" transform="translate(0 0)">
                <path id="Path_492" data-name="Path 492" d="M17.974,25.373l-1.317,1.446-1.9-2.081-2.682.854-.6-2.75-2.75-.6.854-2.682L7.5,17.662l2.081-1.9-.854-2.682,2.75-.6.6-2.75,2.682.854,1.9-2.081,1.9,2.081,2.682-.854.6,2.75,2.75.6-.854,2.682,2.081,1.9-1.324,1.207" transform="translate(-7.5 -8.506)" fill="none" stroke="#000" stroke-linecap="round" stroke-linejoin="round" stroke-miterlimit="10" stroke-width="1"/>
                <path id="Path_493" data-name="Path 493" d="M157.327,139.9l1.34-3.518a.081.081,0,0,1,.15,0l1.328,3.518" transform="translate(-148.283 -128.62)" fill="none" stroke="#000" stroke-linecap="round" stroke-linejoin="round" stroke-miterlimit="10" stroke-width="1"/>
                <line id="Line_52" data-name="Line 52" x2="1.988" transform="translate(9.462 10.408)" fill="none" stroke="#000" stroke-linecap="round" stroke-linejoin="round" stroke-miterlimit="10" stroke-width="1"/>
                <line id="Line_53" data-name="Line 53" y2="3.568" transform="translate(4.823 7.663)" fill="none" stroke="#000" stroke-linecap="round" stroke-linejoin="round" stroke-miterlimit="10" stroke-width="1"/>
                <line id="Line_54" data-name="Line 54" y2="3.568" transform="translate(7.292 7.663)" fill="none" stroke="#000" stroke-linecap="round" stroke-linejoin="round" stroke-miterlimit="10" stroke-width="1"/>
                <line id="Line_55" data-name="Line 55" x2="2.469" transform="translate(4.823 9.386)" fill="none" stroke="#000" stroke-linecap="round" stroke-linejoin="round" stroke-miterlimit="10" stroke-width="1"/>
                <g id="Group_210" data-name="Group 210" transform="translate(13.654 7.614)">
                    <line id="Line_56" data-name="Line 56" y1="2.189" fill="none" stroke="#000" stroke-linecap="round" stroke-linejoin="round" stroke-miterlimit="10" stroke-width="1"/>
                </g>
                <g id="Group_211" data-name="Group 211" transform="translate(13.654 11.267)">
                    <line id="Line_57" data-name="Line 57" fill="none" stroke="#000" stroke-linecap="round" stroke-linejoin="round" stroke-miterlimit="10" stroke-width="1"/>
                </g>
                <path id="Path_494" data-name="Path 494" d="M194.791,184.147l2,2.19,2.823-.9.633,2.895,2.895.633-.9,2.823,2.19,2-2.19,2,.9,2.823-2.895.633-.633,2.895-2.823-.9-2,2.19-2-2.19-2.823.9-.633-2.895-2.895-.633.9-2.823-2.19-2,2.19-2-.9-2.823,2.895-.633.633-2.895,2.823.9Z" transform="translate(-174.429 -173.545)" fill="none" stroke="#000" stroke-linecap="round" stroke-linejoin="round" stroke-miterlimit="10" stroke-width="1"/>
                <path id="Path_495" data-name="Path 495" d="M342.963,323.53l1.34-3.518a.081.081,0,0,1,.15,0l1.328,3.518" transform="translate(-322.714 -301.161)" fill="none" stroke="#000" stroke-linecap="round" stroke-linejoin="round" stroke-miterlimit="10" stroke-width="1"/>
                <line id="Line_58" data-name="Line 58" x2="1.988" transform="translate(20.667 21.492)" fill="none" stroke="#000" stroke-linecap="round" stroke-linejoin="round" stroke-miterlimit="10" stroke-width="1"/>
                <line id="Line_59" data-name="Line 59" y2="3.568" transform="translate(16.028 18.747)" fill="none" stroke="#000" stroke-linecap="round" stroke-linejoin="round" stroke-miterlimit="10" stroke-width="1"/>
                <line id="Line_60" data-name="Line 60" y2="3.568" transform="translate(18.498 18.747)" fill="none" stroke="#000" stroke-linecap="round" stroke-linejoin="round" stroke-miterlimit="10" stroke-width="1"/>
                <line id="Line_61" data-name="Line 61" x2="2.469" transform="translate(16.028 20.47)" fill="none" stroke="#000" stroke-linecap="round" stroke-linejoin="round" stroke-miterlimit="10" stroke-width="1"/>
                <g id="Group_212" data-name="Group 212" transform="translate(24.859 18.698)">
                    <line id="Line_62" data-name="Line 62" y1="2.189" fill="none" stroke="#000" stroke-linecap="round" stroke-linejoin="round" stroke-miterlimit="10" stroke-width="1"/>
                </g>
                <g id="Group_213" data-name="Group 213" transform="translate(24.859 22.351)">
                    <line id="Line_63" data-name="Line 63" fill="none" stroke="#000" stroke-linecap="round" stroke-linejoin="round" stroke-miterlimit="10" stroke-width="1"/>
                </g>
            </g>
        </g>
    </g>
</svg>
