<?xml version="1.0" encoding="UTF-8"?>
<svg xmlns="http://www.w3.org/2000/svg" width="26.86" height="30" viewBox="0 0 26.86 30">
    <g id="Group_216" data-name="Group 216" transform="translate(6331 -3331.249)">
        <g id="like-2" transform="translate(-6331 3331.249)">
            <path id="Path_496" data-name="Path 496" d="M171.756,128.021a1.751,1.751,0,0,1,0,3.5H171l-.011.046a1.75,1.75,0,0,1-.4,3.455h-1.167a1.751,1.751,0,1,1,0,3.5h-6.276c-3.2,0-4.046-.392-7.146-1.167V125.687c.062-.048,9.337-1.744,9.337-7.353v-.584a1.751,1.751,0,0,1,3.5,0,13.817,13.817,0,0,1-1.167,6.772h5.252a1.751,1.751,0,1,1,0,3.5Z" transform="translate(-148.397 -109.109)" fill="#ffbfab"/>
            <path id="Path_497" data-name="Path 497" d="M43,263.167v11.671a1.167,1.167,0,0,1-1.167,1.167H36V262h5.836A1.167,1.167,0,0,1,43,263.167Z" transform="translate(-35.416 -246.589)" fill="#59c0ee"/>
            <path id="Path_498" data-name="Path 498" d="M337.167,3.268V.584a.584.584,0,0,0-1.167,0V3.268a.584.584,0,0,0,1.167,0Z" transform="translate(-317.898 0)"/>
            <path id="Path_499" data-name="Path 499" d="M106.584,312a.584.584,0,1,0,.584.584A.584.584,0,0,0,106.584,312Z" transform="translate(-101.329 -293.716)"/>
            <path id="Path_500" data-name="Path 500" d="M50.524,114.564H46.165a14.791,14.791,0,0,0,.9-5.6,6.711,6.711,0,0,0-.041-.674,2.335,2.335,0,0,0-4.67.056v.587c0,3.71-4.742,5.794-8.321,6.688a1.754,1.754,0,0,0-1.606-1.057H26.584a.585.585,0,0,0-.584.587v14.077a.585.585,0,0,0,.584.587h5.839a1.754,1.754,0,0,0,1.6-1.045l.825.215a18.86,18.86,0,0,0,5.893.829h6.279a2.347,2.347,0,0,0,1.94-3.651,2.358,2.358,0,0,0,1.172-3.521,2.351,2.351,0,0,0,1.164-3.518,2.348,2.348,0,0,0-.773-4.561ZM33.007,128.054a.586.586,0,0,1-.584.587H27.168v-12.9h5.255a.586.586,0,0,1,.584.587Zm17.517-9.971H47.6a.587.587,0,0,0,0,1.173h1.752a1.173,1.173,0,0,1,0,2.346h-2.92a.587.587,0,0,0,0,1.173h1.752a1.173,1.173,0,0,1,0,2.346h-2.92a.587.587,0,0,0,0,1.173h1.752a1.173,1.173,0,0,1,0,2.346H40.741a17.74,17.74,0,0,1-5.6-.791q-.441-.116-.969-.252v-10.8c4.226-1.011,9.343-3.479,9.343-7.861v-.587a1.168,1.168,0,1,1,2.336,0v0a13.826,13.826,0,0,1-.953,6.217H42.933a.587.587,0,0,0,0,1.173h7.591a1.173,1.173,0,0,1,0,2.346Z" transform="translate(-26 -99.814)"/>
            <path id="Path_501" data-name="Path 501" d="M106.584,352a.584.584,0,0,0-.584.584v4.668a.584.584,0,1,0,1.167,0v-4.668A.584.584,0,0,0,106.584,352Z" transform="translate(-101.329 -331.337)"/>
            <path id="Path_502" data-name="Path 502" d="M216,126.584a.584.584,0,0,0,.584.584h2.334a.584.584,0,0,0,0-1.167h-2.334A.584.584,0,0,0,216,126.584Z" transform="translate(-204.905 -118.616)"/>
            <path id="Path_503" data-name="Path 503" d="M416,126.584a.584.584,0,0,0,.584.584h2.334a.584.584,0,0,0,0-1.167h-2.334A.584.584,0,0,0,416,126.584Z" transform="translate(-393.225 -118.616)"/>
            <path id="Path_504" data-name="Path 504" d="M394.391,41.322l-1.65,1.65a.584.584,0,0,0,.825.825l1.65-1.65a.584.584,0,1,0-.825-.825Z" transform="translate(-371.162 -38.75)"/>
            <path id="Path_505" data-name="Path 505" d="M253.8,43.8a.584.584,0,0,0,0-.825l-1.65-1.65a.584.584,0,1,0-.825.825l1.65,1.65A.584.584,0,0,0,253.8,43.8Z" transform="translate(-238.002 -38.75)"/>
        </g>
    </g>
</svg>
