<?xml version="1.0" encoding="UTF-8"?>
<svg xmlns="http://www.w3.org/2000/svg" width="30" height="18.477" viewBox="0 0 30 18.477">
    <g id="crown" transform="translate(0 -0.005)">
        <path id="Path_519" data-name="Path 519" d="M3.511,11.921.2,2.261S4.343,13.778,8.861.4c0,0,4.9,14.489,9.414,0,0,0,3.765,13,9.037,2.229l-3.178,9.288Zm0,0" transform="translate(1.177 2.341)" fill="#feda38"/>
        <path id="Path_520" data-name="Path 520" d="M24.536,12.79H3.912a.469.469,0,0,1-.443-.317L.158,2.814A.469.469,0,0,1,1.042,2.5c.432,1.2,1.916,4.3,3.58,4.3h.013C5.6,6.793,7.107,5.718,8.818.654a.469.469,0,0,1,.888,0c.577,1.706,2.512,6.121,4.521,6.121h.016c.952-.012,2.417-1.081,3.985-6.11a.469.469,0,0,1,.448-.329h0a.469.469,0,0,1,.446.338c.479,1.651,2.179,5.976,4.264,6.157,1.218.1,2.569-1.279,3.9-4a.469.469,0,0,1,.865.358L24.98,12.473A.469.469,0,0,1,24.536,12.79Zm-20.29-.938H24.2l1.836-5.368a3.357,3.357,0,0,1-2.729,1.28c-2.309-.2-3.894-3.53-4.631-5.486-1.3,3.634-2.754,5.415-4.424,5.434h-.027c-2.334,0-4.135-3.579-4.952-5.553C7.861,5.9,6.34,7.724,4.644,7.74A3.126,3.126,0,0,1,2.49,6.726Zm0,0" transform="translate(0.776 1.941)"/>
        <path id="Path_521" data-name="Path 521" d="M.683,2.08H21.305V5.831H.683Zm0,0" transform="translate(4.006 12.181)" fill="#fcad3a"/>
        <path id="Path_522" data-name="Path 522" d="M21.706,6.7H1.083a.468.468,0,0,1-.469-.469V2.481a.468.468,0,0,1,.469-.469H21.706a.468.468,0,0,1,.469.469V6.232A.468.468,0,0,1,21.706,6.7ZM1.552,5.763H21.237V2.95H1.552Zm0,0" transform="translate(3.606 11.781)"/>
        <path id="Path_523" data-name="Path 523" d="M3.6,1.209A1.136,1.136,0,1,1,2.46.073,1.136,1.136,0,0,1,3.6,1.209Zm0,0" transform="translate(7.771 0.401)" fill="#feda38"/>
        <path id="Path_524" data-name="Path 524" d="M2.861,3.214a1.6,1.6,0,1,1,1.6-1.6A1.606,1.606,0,0,1,2.861,3.214Zm0-2.271a.667.667,0,1,0,.667.667A.668.668,0,0,0,2.861.943Zm0,0" transform="translate(7.371 0)"/>
        <path id="Path_525" data-name="Path 525" d="M4.919,1.209A1.136,1.136,0,1,1,3.783.073,1.136,1.136,0,0,1,4.919,1.209Zm0,0" transform="translate(15.531 0.401)" fill="#feda38"/>
        <path id="Path_526" data-name="Path 526" d="M4.184,3.214a1.6,1.6,0,1,1,1.6-1.6A1.606,1.606,0,0,1,4.184,3.214Zm0-2.271a.667.667,0,1,0,.667.667A.668.668,0,0,0,4.184.943Zm0,0" transform="translate(15.13 0)"/>
        <path id="Path_527" data-name="Path 527" d="M6.241,1.539A1.136,1.136,0,1,1,5.106.4,1.136,1.136,0,0,1,6.241,1.539Zm0,0" transform="translate(23.29 2.341)" fill="#feda38"/>
        <path id="Path_528" data-name="Path 528" d="M5.507,3.544a1.6,1.6,0,1,1,1.6-1.6A1.606,1.606,0,0,1,5.507,3.544Zm0-2.271a.667.667,0,1,0,.667.667A.667.667,0,0,0,5.507,1.273Zm0,0" transform="translate(22.889 1.941)"/>
        <path id="Path_529" data-name="Path 529" d="M2.339,1.539A1.136,1.136,0,1,1,1.2.4,1.136,1.136,0,0,1,2.339,1.539Zm0,0" transform="translate(0.401 2.341)" fill="#feda38"/>
        <path id="Path_530" data-name="Path 530" d="M1.6,3.544a1.6,1.6,0,1,1,1.6-1.6A1.606,1.606,0,0,1,1.6,3.544Zm0-2.271a.667.667,0,1,0,.667.667A.667.667,0,0,0,1.6,1.273Zm0,0" transform="translate(0 1.941)"/>
    </g>
</svg>
