<?xml version="1.0" encoding="UTF-8" standalone="no"?>
<!-- Created with Inkscape (http://www.inkscape.org/) -->

<svg
   width="74.0mm"
   height="52.0mm"
   viewBox="0 0 74.0 52.0"
   version="1.1"
   id="SVGRoot"
   sodipodi:docname="cafe_promotion.svg"
   inkscape:version="1.2.1 (8a69933317, 2022-10-28, custom)"
   xmlns:inkscape="http://www.inkscape.org/namespaces/inkscape"
   xmlns:sodipodi="http://sodipodi.sourceforge.net/DTD/sodipodi-0.dtd"
   xmlns="http://www.w3.org/2000/svg"
   xmlns:svg="http://www.w3.org/2000/svg">
  <sodipodi:namedview
     id="namedview119"
     pagecolor="#ffffff"
     bordercolor="#000000"
     borderopacity="0.25"
     inkscape:showpageshadow="2"
     inkscape:pageopacity="0.0"
     inkscape:pagecheckerboard="0"
     inkscape:deskcolor="#d1d1d1"
     inkscape:document-units="mm"
     showgrid="false"
     inkscape:zoom="3.0360269"
     inkscape:cx="102.43651"
     inkscape:cy="105.40091"
     inkscape:window-width="1920"
     inkscape:window-height="1031"
     inkscape:window-x="0"
     inkscape:window-y="25"
     inkscape:window-maximized="1"
     inkscape:current-layer="layer1" />
  <defs
     id="defs114" />
  <g
     inkscape:label="Layer 1"
     inkscape:groupmode="layer"
     id="layer1">
    <rect
       style="fill:#008000;stroke-width:0.264583"
       id="rect404"
       width="74.167946"
       height="52.290306"
       x="0.013316224"
       y="-0.13993585"
       ry="0" />
    <text
       xml:space="preserve"
       style="font-size:3.175px;fill:#000000;stroke-width:0.264583"
       x="4.0798898"
       y="6.0186563"
       id="text476"><tspan
         sodipodi:role="line"
         id="tspan474"
         style="stroke-width:0.264583"
         x="4.0798898"
         y="6.0186563">Kup u nas kawę a dostaniesz 100g mięty</tspan><tspan
         sodipodi:role="line"
         style="stroke-width:0.264583"
         x="4.0798898"
         y="9.9874058"
         id="tspan478">w gratisie!!!</tspan></text>
    <path
       style="fill:#ffcc00;stroke-width:0.264583"
       d="m 12.858313,15.878139 c -0.216989,2.375322 -0.06506,4.727344 -0.261444,7.110414 -0.02101,0.254962 0.09741,1.790519 0,1.917253 -0.04509,0.05867 -0.151252,-0.0217 -0.221997,0 -0.437506,0.134217 -0.793084,0.329463 -1.233528,0.440165 -0.174183,0.04378 -0.396392,-0.05663 -0.566291,0 -0.03897,0.01299 -0.04817,0.07416 -0.08715,0.08715 -0.246078,0.08203 -0.7613188,0.126887 -1.0457749,0.174296 -0.2766841,0.04611 -0.5994937,-0.068 -0.8714791,0 -0.063017,0.01575 -0.1112789,0.07139 -0.1742958,0.08715 -0.091928,0.02298 -0.3820173,-0.05889 -0.4669996,0 -0.067536,0.0468 -0.1085647,0.124997 -0.1742956,0.174296 -0.3345024,0.250876 -0.8397232,0.40992 -1.0264691,0.596652 -0.1858832,0.18587 -0.1005519,0.802267 -0.2164072,1.06022 -0.3647051,0.812022 -0.2026028,-0.0021 -0.3601418,0.627999 -0.1823066,0.215403 -0.041217,0.467529 -0.087148,0.697182 -0.042879,0.214395 -0.1822217,0.586277 -0.2614435,0.784331 -0.015259,0.03815 -0.074157,0.04818 -0.087148,0.08715 -0.1070575,0.321172 -0.1062561,0.705577 -0.1742958,1.045773 -0.034182,0.170913 0.014475,0.349195 0,0.522888 -0.056762,0.681149 -0.087148,1.303917 -0.087148,1.990593 0,0.293703 0.048284,0.591402 0,0.881108 -0.010679,0.06407 -0.076469,0.110222 -0.087148,0.174296 -0.1695849,1.017509 0.1695852,2.119813 0,3.137324 -0.015102,0.09061 -0.072046,0.170831 -0.087148,0.261442 -0.1320803,0.79248 0.088421,1.650466 0,2.449381 -0.1136026,1.026437 -0.1990313,2.25121 0.2478772,3.156323 0.038583,0.07814 -0.027559,0.178768 0,0.261445 0.027282,0.08185 0.1232287,0.198763 0.1462456,0.232278 0.098592,0.14356 -0.023746,0.486677 0.087148,0.639524 0.056733,0.0782 1.8852954,-0.41829 1.9725399,-0.43574 1.9217774,-0.384354 3.9040097,-0.703632 5.8729037,-0.527536 0.499836,0.04471 0.981426,0.21977 1.481514,0.261445 0.173693,0.01447 0.350963,-0.02865 0.522887,0 0.181224,0.0302 0.343881,0.132929 0.522887,0.174294 0.635632,0.146889 1.367009,0.230003 2.017316,0.276019 1.137567,0.0805 2.271767,0.171106 3.405954,0.284136 0.314952,0.03139 0.645561,-0.04472 0.958627,0 0.09094,0.01299 0.170831,0.07205 0.261443,0.08715 0.200579,0.03343 0.409457,-0.03343 0.610036,0 0.06407,0.01069 0.110601,0.07441 0.174295,0.08715 0.425942,0.08519 0.959366,0 1.394367,0 0.06298,0 0.436944,0.02865 0.522887,0 0.123246,-0.04108 0.227971,-0.126047 0.348592,-0.174294 0.165715,-0.06629 1.019307,0.02982 1.129146,-0.174297 0.05682,-0.105593 0,-1.223378 0,-1.362998 0,-0.813382 0,-1.626762 0,-2.440141 0,-0.80712 0.055,-1.635795 0,-2.440371 -0.08118,-1.187469 -0.33296,-2.342552 -0.469064,-3.520462 -0.02397,-0.207473 0.02463,-0.419163 0,-0.626557 -0.09117,-0.76723 -0.308018,-1.471713 -0.44492,-2.224675 -0.02079,-0.114323 0.0191,-0.233976 0,-0.348591 -0.01068,-0.06407 -0.0693,-0.111839 -0.08715,-0.174297 -0.11372,-0.398018 -0.163426,-0.828 -0.261444,-1.22007 -0.06893,-0.275714 -0.03222,-0.596845 -0.08715,-0.871479 -0.0081,-0.04028 -0.07416,-0.04817 -0.08715,-0.08715 -0.066,-0.19799 -7.94e-4,-0.17589 -0.08715,-0.348591 -0.0044,-0.0088 -0.07172,-0.543801 -0.08715,-0.605512 -0.122765,-0.491064 -0.269902,-0.981824 -0.435739,-1.479333 -0.05272,-0.158165 -0.114485,-0.682616 -0.174296,-0.76604 -0.04315,-0.06018 -0.985566,7.41e-4 -0.992945,0 -0.340578,-0.03406 -0.566209,-0.156013 -0.871479,-0.261444 -0.323855,-0.111849 -0.85577,0 -1.199783,0 -1.096466,0 -2.158436,0.172206 -3.251238,0.172206 -0.48543,0 -1.596076,0.186704 -1.917253,-0.348592 -0.343554,-0.57259 -0.261444,-1.54254 -0.261444,-2.176511 0,-0.809316 -0.07028,-1.653019 0.08715,-2.440141 0.04432,-0.221602 -0.05473,-0.478251 0,-0.697183 0.01575,-0.06302 0.07139,-0.111279 0.08715,-0.174296 0.06101,-0.244052 -0.04137,-0.536133 0,-0.784331 0.04406,-0.264352 0.130237,-0.519978 0.174296,-0.78433 0.03693,-0.221595 -0.05442,-0.479504 0,-0.697184 0.01575,-0.06302 0.07441,-0.1106 0.08715,-0.174295 0.0091,-0.04553 0.102508,-1.890764 0.08715,-1.913326 -0.0019,-0.0027 -0.933835,0.39368 -0.999136,0.42633 -1.116824,0.558412 -1.699227,0.43574 -2.878072,0.43574"
       id="path915" />
    <path
       style="fill:#ffcc00;stroke-width:0.264583"
       d="M 39.174343,16.24002 32.561522,12.437263"
       id="path917" />
    <path
       style="fill:#ffcc00;stroke-width:0.264583"
       d="M 52.796683,19.198942 6.5177619,19.314081"
       id="path919" />
    <path
       style="fill:#000000;stroke-width:0.264583"
       id="path970"
       d="m 14.613186,19.961981 c 0.34439,-0.108361 0.705763,-0.147483 1.064548,-0.171557 0.230013,-0.01379 0.455504,0.05134 0.683793,0.07661 0.205574,0.0093 0.411302,0.0059 0.616995,0.0065 0.137779,0.0016 0.275544,-1.54e-4 0.413322,-2.65e-4 0,0 -3.193932,-2.320574 -3.193932,-2.320574 v 0 c -0.136601,-1.49e-4 -0.273189,-0.0018 -0.409788,-0.0026 -0.200743,-0.0039 -0.401957,-0.01225 -0.600753,-0.04225 -0.235795,-0.02527 -0.470095,-0.03308 -0.704729,0.01258 -0.376796,0.05467 -0.748994,0.135002 -1.122093,0.210236 0,0 3.252637,2.231348 3.252637,2.231348 z" />
    <text
       xml:space="preserve"
       style="font-size:3.175px;fill:#000000;stroke-width:0.264583"
       x="7.6778703"
       y="30.561367"
       id="text1026"><tspan
         sodipodi:role="line"
         id="tspan1024"
         style="stroke-width:0.264583"
         x="7.6778703"
         y="30.561367">Mięta</tspan><tspan
         sodipodi:role="line"
         style="stroke-width:0.264583"
         x="7.6778703"
         y="34.530117"
         id="tspan1028">9cl</tspan></text>
    <path
       style="fill:#c87137;stroke-width:0.264583"
       d="m 43.609963,20.557941 c 0.227799,0.313352 0.417756,0.65807 0.683398,0.940055 0.24013,0.254905 1.140515,0.554375 1.420624,0.624402 0.345022,0.08626 0.686785,-0.0204 1.045777,0.08715 0.738827,0.221338 1.427964,0.453198 2.199936,0.567624 1.078831,0.15991 2.161447,0.109302 3.247493,0.109302 0.43611,0 0.873697,0.03582 1.308336,0 0.688885,-0.05677 1.395063,-0.210594 2.082569,-0.283861 2.347542,-0.250177 4.840034,-0.316992 6.856757,-1.66081 0.333293,-0.222084 0.741407,-0.355479 1.049713,-0.6124 1.501219,-1.251017 2.27444,-2.85089 1.290185,-4.686249 -0.102047,-0.190288 -0.312044,-0.595312 -0.537694,-0.724254 -0.103995,-0.05943 -0.236445,-0.04509 -0.348594,-0.08715 -0.12164,-0.04562 -0.225346,-0.133214 -0.348591,-0.174296 -1.080604,-0.360202 -2.295819,-0.136414 -3.406053,-0.190405 -0.56823,-0.02763 -1.133089,-0.109444 -1.70149,-0.133248 -0.811954,-0.034 -1.62533,0 -2.437993,0 -0.553704,0 -1.10219,-0.04815 -1.643374,0.08715 -0.744885,0.18622 -1.356739,0.757918 -2.013562,1.139028 -0.979355,0.568256 -1.962475,1.119402 -2.918899,1.727993 -0.520665,0.331309 -1.065522,0.659301 -1.567233,1.0179 -0.159506,0.114009 -0.290578,0.267074 -0.458131,0.368892 -0.133689,0.08124 -0.298342,0.09951 -0.43574,0.174295 -0.909047,0.494814 -1.739505,1.10474 -2.668426,1.5692 -0.09368,0.04684 -0.157226,0.163861 -0.261442,0.174296 -0.145582,0.01458 -0.291712,-0.02307 -0.437566,-0.03461 z"
       id="path1030" />
    <path
       style="fill:#000000;stroke-width:0.264583"
       d="m 43.620875,20.762744 c 0.05529,1.168385 -0.06929,2.347452 0,3.515006 0.02928,0.493295 0.175601,0.975268 0.201263,1.468764 0.0195,0.374855 -0.01791,0.751149 0,1.126082 0.06014,1.25906 0.308975,2.606622 0.626189,3.820301 0.772928,2.957271 0.13602,0.398782 0.960647,2.684774 0.09025,0.25019 0.09941,0.525325 0.193519,0.774089 0.0614,0.162282 0.185041,0.293833 0.268131,0.446154 0.494189,0.905978 0.726842,1.171998 1.445641,1.893816 0.149741,0.15037 0.275,0.329517 0.448228,0.452091 0.863232,0.610801 2.806562,0.3494 3.771519,0.3494 0.405961,0 0.812279,-0.01701 1.217885,0 1.095386,0.04597 2.220426,0.29699 3.269353,-0.161057 0.684464,-0.298892 1.353495,-0.803476 1.882743,-1.332616 0.344083,-0.344014 0.220951,-0.355835 0.436581,-0.786003 0.315055,-0.62851 0.715074,-1.194901 0.971648,-1.856801 0.21399,-0.552048 0.341172,-1.147641 0.544227,-1.706038 0.137374,-0.377778 0.310023,-0.755772 0.43574,-1.132922 0.04684,-0.140523 0.03214,-0.298212 0.08715,-0.43574 0.223377,-0.558446 0.26615,-0.275564 0.43574,-0.784331 0.289033,-1.445165 -0.123246,0.328655 0.261442,-0.697182 0.05201,-0.138692 0.03514,-0.297048 0.08715,-0.43574 0.03678,-0.09807 0.116197,-0.174297 0.174294,-0.261443 0.0581,-0.116199 0.128683,-0.226951 0.174297,-0.348593 0.304416,-0.811777 0.705472,-1.587689 1.132922,-2.352992 0.221559,-0.396677 0.377597,-0.874436 0.63047,-1.253746 0.04558,-0.06836 0.137552,-0.100806 0.174297,-0.174296 0.200158,-0.400314 0.346589,-1.127334 0.434634,-1.567558 -0.02,-0.175005 0.136353,-0.283975 0.174294,-0.435739 0.0391,-0.156394 0.01434,-0.377279 0.08715,-0.522888 0.06621,-0.132413 0.215249,-0.210008 0.261445,-0.348591 0.04225,-0.126761 -0.04338,-0.297689 0,-0.424099 0.08383,-0.244311 0.136012,-0.510103 0.173209,-0.770485 0.02053,-0.143787 -0.03523,-0.29483 0,-0.43574 0.09571,-0.38285 0.08715,-0.141362 0.08715,-0.342695"
       id="path1095" />
    <path
       style="fill:#000000;stroke-width:0.264583"
       d="M 66.143639,45.161057 68.138285,32.938571"
       id="path1097" />
    <path
       style="fill:#000000;stroke-width:0.264583;opacity:0.12"
       d="m 63.469757,23.650555 c 0.706033,-0.430345 1.590485,-1.23303 2.493352,-0.831048 0.509759,0.226958 0.845431,0.774708 1.311198,0.961015 1.049356,0.419742 1.534824,1.755244 1.830104,2.788732 0.224266,0.784929 0.401378,1.68769 0.261446,2.52729 -0.03882,0.232918 -0.20695,0.392054 -0.261446,0.610034 -0.0795,0.318005 -0.217424,0.667541 -0.435739,0.958627 -0.0986,0.131461 -0.249995,0.217131 -0.348592,0.348591 -0.338243,0.450993 -0.761851,1.001925 -1.307216,1.220071 -0.305456,0.122182 -0.563004,0.03574 -0.871479,0.08715 -1.273479,0.212247 -1.478418,0.0099 -2.701586,-0.435739 -0.656135,-0.23903 -1.427689,-0.392769 -1.828904,-0.99459 -0.06371,-0.09556 -0.209412,-0.157848 -0.260315,-0.260321 -0.02909,-0.05856 0.02299,-0.09886 0,-0.156051 -0.06202,-0.154234 -0.103346,-0.265954 -0.171424,-0.402106 -0.0444,-0.08881 -0.01143,-0.260168 -0.04387,-0.32044 -0.04914,-0.0913 0.02392,-0.318719 0,-0.41412 -0.04492,-0.179115 -0.09958,-0.374391 -0.174297,-0.522888 -0.02572,-0.05114 0.03768,-0.200017 0,-0.241843 -0.08755,-0.09719 -0.06771,0.108011 -0.06771,-0.05953"
       id="path1099" />
    <path
       style="opacity:0.12;fill:#000000;stroke-width:0.264583"
       d="M 39.12122,28.82669 61.488758,27.619044"
       id="path1778" />
    <path
       style="opacity:1;fill:#ffffff;stroke-width:0.264583"
       d="m 62.75267,26.027 c 0.08107,-0.316604 0.192432,-0.716958 0.43574,-0.960265 0.04593,-0.04593 0.128363,-0.04122 0.174294,-0.08715 0.07059,-0.07059 0.121912,-0.292407 0.174297,-0.348591 0.06933,-0.07436 0.363985,-0.04635 0.459227,-0.07143 0.184179,-0.04849 0.338177,-0.215266 0.522888,-0.261443 0.05636,-0.01409 0.119179,0.01837 0.174297,0 0.03897,-0.01299 0.04817,-0.07416 0.08715,-0.08715 0.02424,-0.0081 0.368422,-0.02998 0.419889,0 0.447199,0.260473 0.922851,0.593918 1.408247,0.836617 0.138906,0.06945 0.207738,0.237744 0.261443,0.346491 0.06746,0.136599 0.274526,0.204484 0.342741,0.336522 0.333058,0.644664 0.597112,1.23036 0.597112,2.016635 0,0.203581 0.07636,0.959197 0,1.112264 -0.03534,0.07085 -0.136313,0.09919 -0.161351,0.174297 -0.01836,0.05512 0.0141,0.11793 0,0.174294 -0.0475,0.189995 -0.253058,0.302556 -0.323675,0.395819 -0.09913,0.130921 -0.172488,0.340294 -0.252286,0.4846 -0.223567,0.40431 0.05014,-0.13041 -0.167423,0.08715 -0.04593,0.04593 -0.04122,0.128365 -0.08715,0.174297 -0.04593,0.04593 -0.128366,0.04122 -0.174295,0.08715 -0.04593,0.04593 -0.05112,0.120248 -0.08715,0.174295 -0.11815,0.177223 -0.426564,0.339976 -0.602983,0.429781 -0.04926,0.02508 -0.11652,-0.025 -0.165817,0 -0.281559,0.142769 -0.483637,0.01648 -0.767109,0.08715 -0.05086,0.01267 -0.499912,0.173503 -0.594767,0.08604 -0.01752,-0.01617 0.01807,-0.05597 0,-0.07153 -0.02098,-0.01807 -0.05834,0.01249 -0.08304,0 -0.34699,-0.175569 -0.520903,-0.693507 -0.868277,-0.86828 -0.02561,-0.01289 -0.06578,0.02029 -0.08606,0 -0.09495,-0.09495 -0.133731,-0.400106 -0.174297,-0.521803 -0.05668,-0.170046 -0.188611,-0.307862 -0.253315,-0.500415 -0.01852,-0.05507 0.02598,-0.12233 0,-0.174294 -0.05659,-0.113176 -0.11172,-0.187436 -0.169328,-0.284774 -0.01418,-0.02394 0.0011,-0.234841 -0.08505,-0.411287 -0.03259,-0.0668 0.03381,-0.183385 0,-0.249481 -0.21264,-0.415681 -0.342305,-1.06204 -0.342305,-1.647092"
       id="path1843" />
    <path
       style="opacity:1;fill:#ffffff;stroke-width:0.264583"
       d="M -11.012234,-4.8998068 -19.260123,10.849188"
       id="path1908" />
    <path
       style="fill:#000000;stroke-width:0.329378"
       d="m 240.92782,120.77392 c -5.51527,-1.92564 -6.23493,-2.28143 -7.70177,-3.8076 -1.30588,-1.3587 -1.99082,-3.08617 -1.99784,-5.03875 -0.003,-0.75813 -0.15489,-1.77277 -0.33814,-2.25475 -0.32532,-0.85565 -0.008,-2.82886 0.6662,-4.14155 0.14924,-0.29062 0.92694,-1.77282 1.72822,-3.29378 0.80128,-1.52096 2.61146,-4.964678 4.02262,-7.652708 2.06236,-3.928469 2.83197,-5.083396 3.92271,-5.8867 3.08718,-2.273638 6.38623,-3.151434 8.21321,-2.185336 0.39569,0.209242 1.46054,1.006019 2.36633,1.770615 0.90579,0.764597 2.26249,1.700748 3.01489,2.080335 0.7524,0.379588 1.83398,1.250286 2.40351,1.934886 2.36907,2.847698 4.55075,9.175898 4.85853,14.092708 0.19281,3.08014 0.13934,3.31439 -1.75843,7.70334 -0.44195,1.0221 -3.63706,4.92541 -5.22472,6.38279 -1.18621,1.08887 -2.58356,1.47776 -6.09349,1.69585 l -3.45847,0.21489 z m 8.13204,-3.38365 c 1.29695,-0.3283 4.23133,-3.00823 5.38453,-4.9176 0.36231,-0.59989 0.9803,-1.62124 1.3733,-2.26966 0.81455,-1.34394 0.94583,-3.47969 0.43221,-7.03162 -0.3428,-2.37061 -1.90263,-6.234926 -2.70794,-6.708603 -0.26598,-0.156451 -0.64674,-0.595649 -0.84613,-0.975997 -0.50295,-0.959394 -6.01467,-4.086172 -7.18709,-4.077204 -0.52013,0.004 -1.59181,0.300419 -2.38151,0.658756 -0.78971,0.358337 -1.78498,0.651522 -2.21172,0.651522 -0.46852,0 -0.93166,0.293583 -1.16912,0.7411 -0.21628,0.407605 -0.6538,0.926127 -0.97227,1.15227 -0.31847,0.226144 -0.8423,1.115465 -1.16408,1.976268 -0.32178,0.860803 -0.94148,2.04272 -1.37712,2.626482 -0.69681,0.933726 -0.76392,1.270466 -0.55795,2.799716 0.12878,0.95607 0.42617,2.3312 0.66089,3.05583 0.23471,0.72463 0.52301,1.83628 0.64065,2.47034 0.11765,0.63405 0.34052,1.44926 0.49528,1.81157 0.15476,0.36232 0.62629,1.54808 1.04785,2.63503 0.55259,1.42482 1.34077,2.55812 2.82466,4.06151 l 2.05819,2.08524 2.22717,-0.22021 c 1.22494,-0.12111 2.76853,-0.35724 3.4302,-0.52474 z"
       id="path388"
       transform="scale(0.26458333)" />
    <path
       style="fill:#000000;stroke-width:0.264583"
       id="path502"
       d="m 62.674621,28.944242 c 0.162716,-0.183545 0.298326,-0.38593 0.415634,-0.600705 0.06581,-0.135636 0.142576,-0.265554 0.21109,-0.399907 0.09934,-0.174993 0.161729,-0.370779 0.236061,-0.557723 0.08117,-0.199591 0.171363,-0.39478 0.259247,-0.591365 0.05849,-0.14782 0.115297,-0.296114 0.177289,-0.442551 0.06963,-0.178068 0.169796,-0.339815 0.259638,-0.5076 0.06798,-0.107464 0.140161,-0.212767 0.198086,-0.326034 0.07123,-0.105161 0.130331,-0.21875 0.188904,-0.331451 0.05663,-0.125496 0.131342,-0.240914 0.188085,-0.366214 0.03154,-0.08804 0.07402,-0.169969 0.117528,-0.252394 0,0 -3.439046,-1.966041 -3.439046,-1.966041 v 0 c -0.04699,0.09113 -0.09335,0.181757 -0.135044,0.27538 -0.04702,0.11794 -0.126246,0.221295 -0.165838,0.34328 -0.06304,0.116337 -0.140187,0.223471 -0.207989,0.336963 -0.04962,0.114839 -0.125703,0.21802 -0.18039,0.330625 -0.0825,0.180888 -0.186116,0.351299 -0.273638,0.529715 -0.06179,0.149214 -0.131273,0.294999 -0.183112,0.448151 -0.0694,0.204217 -0.151072,0.404828 -0.234461,0.603591 -0.07233,0.179344 -0.155167,0.354865 -0.256468,0.519566 -0.05665,0.134593 -0.139783,0.256861 -0.186847,0.395821 -0.08743,0.179685 -0.188555,0.355617 -0.35456,0.474164 0,0 3.365831,2.084729 3.365831,2.084729 z" />
  </g>
</svg>
