<svg id="g1491" xmlns="http://www.w3.org/2000/svg" xmlns:xlink="http://www.w3.org/1999/xlink" width="30" height="30" viewBox="0 0 30 30">
  <defs>
    <clipPath id="clip-path">
      <path id="path1497" d="M0-682.665H30v30H0Z" transform="translate(0 682.665)"/>
    </clipPath>
  </defs>
  <g id="g1493">
    <g id="g1495" clip-path="url(#clip-path)">
      <g id="g1501" transform="translate(0.439 8.018)">
        <path id="path1503" d="M-265.366-440.571c-12.131-4.452-13.552-13.919-11.317-17.737,1.543-2.635,5.1-3.254,8.02-1.6l.011.006.081.047.012.007a8.18,8.18,0,0,1,3.193,3.575c2.179-4.55,7.058-5.586,9.908-3.575a4.9,4.9,0,0,1,1.409,1.535c2.236,3.818.814,13.284-11.317,17.737" transform="translate(277.563 460.823)" fill="#e6e6e6"/>
      </g>
      <g id="g1505" transform="translate(0.439 8.018)">
        <path id="path1507" d="M-265.366-440.571c-12.131-4.452-13.552-13.919-11.317-17.737,1.543-2.635,5.1-3.254,8.02-1.6-3.069-1.688-7.794,5.142-4.074,10.7a63.182,63.182,0,0,0,7.371,8.636" transform="translate(277.563 460.823)" fill="#bab9b9"/>
      </g>
      <g id="g1509" transform="translate(0.44 8.018)">
        <path id="path1511" d="M-19.684-230.243c-1.32-3.2-1.08-6.265-.023-8.069,2.236-3.818,8.709-3.4,11.316,2.041a7.9,7.9,0,0,1,4.533-4.193" transform="translate(20.589 240.826)" fill="none" stroke="#000" stroke-linecap="round" stroke-linejoin="round" stroke-miterlimit="10" stroke-width="1"/>
      </g>
      <g id="g1513" transform="translate(2.123 20.182)">
        <path id="path1515" d="M-32.413-46.158A14.756,14.756,0,0,1-33.9-48.28" transform="translate(33.903 48.28)" fill="none" stroke="#000" stroke-linecap="round" stroke-linejoin="round" stroke-miterlimit="10" stroke-width="1"/>
      </g>
      <g id="g1517" transform="translate(6.696 13.157)">
        <path id="path1519" d="M-393.282,0c.526,4.518-2.245,11.482-12.137,15.112a24.034,24.034,0,0,1-5.94-3.107" transform="translate(411.359)" fill="none" stroke="#000" stroke-linecap="round" stroke-linejoin="round" stroke-miterlimit="10" stroke-width="1"/>
      </g>
      <g id="g1521" transform="translate(16.856 3.293)">
        <path id="path1523" d="M-138.193-229.434c-6.317-2.319-7.058-7.249-5.893-9.237a3.025,3.025,0,0,1,4.177-.831l.006,0,.042.024.006,0a4.26,4.26,0,0,1,1.663,1.862c1.135-2.37,3.676-2.909,5.16-1.862a2.552,2.552,0,0,1,.734.8c1.164,1.988.424,6.918-5.893,9.237" transform="translate(144.545 239.98)" fill="#e6e6e6"/>
      </g>
      <g id="g1525" transform="translate(16.856 3.293)">
        <path id="path1527" d="M-138.193-229.434c-6.317-2.319-7.058-7.249-5.893-9.237a3.025,3.025,0,0,1,4.177-.831c-1.6-.879-4.059,2.678-2.122,5.57a32.9,32.9,0,0,0,3.838,4.5" transform="translate(144.545 239.98)" fill="#bab9b9"/>
      </g>
      <g id="g1529" transform="translate(16.856 3.293)">
        <path id="path1531" d="M-236.916-165.9c2.06-2.31,2.139-4.979,1.355-6.316-1.164-1.988-4.536-1.772-5.893,1.063-1.358-2.835-4.728-3.051-5.893-1.063s-.425,6.918,5.893,9.237a12.341,12.341,0,0,0,3.248-1.734" transform="translate(247.806 173.523)" fill="none" stroke="#000" stroke-linecap="round" stroke-linejoin="round" stroke-miterlimit="10" stroke-width="1"/>
      </g>
      <g id="g1533" transform="translate(7.728 1.73)">
        <path id="path1535" d="M-76.779-127.473c-3.51-1.288-3.921-4.027-3.274-5.132a1.681,1.681,0,0,1,2.32-.462l0,0,.024.014,0,0a2.367,2.367,0,0,1,.924,1.035,2.005,2.005,0,0,1,2.867-1.035,1.418,1.418,0,0,1,.408.444c.647,1.1.236,3.844-3.274,5.132" transform="translate(80.309 133.332)" fill="#e6e6e6"/>
      </g>
      <g id="g1537" transform="translate(7.728 1.73)">
        <path id="path1539" d="M-76.779-127.473c-3.51-1.288-3.921-4.027-3.274-5.132a1.681,1.681,0,0,1,2.32-.462c-.888-.488-2.255,1.488-1.179,3.095a18.282,18.282,0,0,0,2.133,2.5" transform="translate(80.309 133.332)" fill="#bab9b9"/>
      </g>
      <g id="g1541" transform="translate(7.728 1.73)">
        <path id="path1543" d="M-76.779-127.472c3.51-1.288,3.921-4.027,3.274-5.132s-2.52-.985-3.274.59c-.754-1.575-2.627-1.695-3.274-.59S-80.289-128.76-76.779-127.472Z" transform="translate(80.308 133.331)" fill="none" stroke="#000" stroke-linecap="round" stroke-linejoin="round" stroke-miterlimit="10" stroke-width="1"/>
      </g>
      <g id="g1545" transform="translate(1.023 19.501)">
        <path id="path1547" d="M-128.851-119.827l2-.688a.668.668,0,0,0,0-1.264l-2-.688a.668.668,0,0,1-.415-.415l-.688-2a.668.668,0,0,0-1.264,0l-.688,2a.668.668,0,0,1-.415.415l-2,.688a.668.668,0,0,0,0,1.264l2,.688a.668.668,0,0,1,.415.415l.688,2a.668.668,0,0,0,1.264,0l.688-2a.668.668,0,0,1,.415-.415" transform="translate(134.773 125.335)" fill="#e6e6e6"/>
      </g>
      <g id="g1549" transform="translate(1.023 19.501)">
        <path id="path1551" d="M-128.851-119.827l2-.688a.668.668,0,0,0,0-1.264l-2-.688a.668.668,0,0,1-.415-.415l-.688-2a.668.668,0,0,0-1.264,0l-.688,2a.668.668,0,0,1-.415.415l-2,.688a.668.668,0,0,0,0,1.264l2,.688a.668.668,0,0,1,.415.415l.688,2a.668.668,0,0,0,1.264,0l.688-2A.668.668,0,0,1-128.851-119.827Z" transform="translate(134.773 125.335)" fill="none" stroke="#000" stroke-linecap="round" stroke-linejoin="round" stroke-miterlimit="10" stroke-width="1"/>
      </g>
    </g>
  </g>
</svg>
