<svg id="Component_12_1" data-name="Component 12 – 1" xmlns="http://www.w3.org/2000/svg" width="203" height="274.708" viewBox="0 0 203 274.708">
  <path id="Path_458" data-name="Path 458" d="M0,0,142.178-87.981,203,0V177H0Z" transform="translate(0 87.981)" fill="#12171f"/>
  <path id="Path_465" data-name="Path 465" d="M5.56,92.96a21.081,21.081,0,0,0,5.1,2.4,26.1,26.1,0,0,0,9.06,1.44,14.321,14.321,0,0,0,7.08-1.5,9.869,9.869,0,0,0,4.08-4.62,24.163,24.163,0,0,0,1.86-7.98q.42-4.86.42-11.58V27.8H52.84V71.12a140.351,140.351,0,0,1-1.02,17.7,34.409,34.409,0,0,1-4.44,13.62,22.679,22.679,0,0,1-10.02,8.76q-6.6,3.12-17.64,3.12-10.8,0-18.48-5.28ZM135.4,113V62L116.92,99.08H106.36L87.88,62v51H68.2V27.8H89.56l22.08,44.52,22.2-44.52h21.24V113Z" transform="translate(33.912 160.388)" fill="#0752a5"/>
  <path id="ios-pin" d="M18,3.375c-5.59,0-10.125,4.212-10.125,9.4C7.875,20.089,18,32.625,18,32.625S28.125,20.088,28.125,12.776C28.125,7.587,23.59,3.375,18,3.375ZM18,16.8a3.3,3.3,0,1,1,3.3-3.3A3.3,3.3,0,0,1,18,16.8Z" transform="translate(58.037 149.388)" fill="#0752a5"/>
</svg>
